<?xml version="1.0" encoding="UTF-8" standalone="no"?>
<!DOCTYPE svg PUBLIC "-//W3C//DTD SVG 1.1//EN"
 "http://www.w3.org/Graphics/SVG/1.1/DTD/svg11.dtd">
<!-- Generated by graphviz version 14.1.5 (20260411.2331)
 -->
<!-- Title: G Pages: 1 -->
<svg width="978pt" height="233pt"
 viewBox="0.00 0.00 978.00 233.00" xmlns="http://www.w3.org/2000/svg" xmlns:xlink="http://www.w3.org/1999/xlink">
<g id="graph0" class="graph" transform="scale(1 1) rotate(0) translate(4 228.5)">
<title>G</title>
<polygon fill="white" stroke="none" points="-4,4 -4,-228.5 974,-228.5 974,4 -4,4"/>
<g id="clust1" class="cluster">
<title>cluster_G</title>
<path fill="#808080" fill-opacity="0.094118" stroke="black" d="M20,-8C20,-8 950,-8 950,-8 956,-8 962,-14 962,-20 962,-20 962,-204.5 962,-204.5 962,-210.5 956,-216.5 950,-216.5 950,-216.5 20,-216.5 20,-216.5 14,-216.5 8,-210.5 8,-204.5 8,-204.5 8,-20 8,-20 8,-14 14,-8 20,-8"/>
</g>
<g id="clust2" class="cluster">
<title>cluster_tool_client</title>
<path fill="#808080" fill-opacity="0.094118" stroke="black" d="M128,-16C128,-16 942,-16 942,-16 948,-16 954,-22 954,-28 954,-28 954,-152.5 954,-152.5 954,-158.5 948,-164.5 942,-164.5 942,-164.5 128,-164.5 128,-164.5 122,-164.5 116,-158.5 116,-152.5 116,-152.5 116,-28 116,-28 116,-22 122,-16 128,-16"/>
<text xml:space="preserve" text-anchor="middle" x="535" y="-147.2" font-family="Times New Roman,serif" font-size="14.00">tool_client</text>
</g>
<!-- test_tools -->
<g id="node1" class="node">
<title>test_tools</title>
<ellipse fill="#ffffff" fill-opacity="0.698039" stroke="black" cx="62" cy="-114" rx="46.23" ry="18"/>
<text xml:space="preserve" text-anchor="middle" x="62" y="-108.95" font-family="Times New Roman,serif" font-size="14.00" fill="#000000">test_tools</text>
</g>
<!-- tool_client__create_file -->
<g id="node4" class="node">
<title>tool_client__create_file</title>
<ellipse fill="#ffffff" fill-opacity="0.698039" stroke="black" cx="277" cy="-42" rx="49.82" ry="18"/>
<text xml:space="preserve" text-anchor="middle" x="277" y="-36.95" font-family="Times New Roman,serif" font-size="14.00" fill="#000000">create_file</text>
</g>
<!-- test_tools&#45;&gt;tool_client__create_file -->
<g id="edge4" class="edge">
<title>test_tools&#45;&gt;tool_client__create_file</title>
<path fill="none" stroke="#000000" d="M95.86,-101.4C101.26,-99.58 106.78,-97.73 112,-96 151.52,-82.93 196.52,-68.51 229.53,-58.01"/>
<polygon fill="#000000" stroke="#000000" points="230.33,-61.43 238.8,-55.07 228.21,-54.76 230.33,-61.43"/>
</g>
<!-- tool_client__delete_file -->
<g id="node5" class="node">
<title>tool_client__delete_file</title>
<ellipse fill="#ffffff" fill-opacity="0.698039" stroke="black" cx="628" cy="-42" rx="49.82" ry="18"/>
<text xml:space="preserve" text-anchor="middle" x="628" y="-36.95" font-family="Times New Roman,serif" font-size="14.00" fill="#000000">delete_file</text>
</g>
<!-- test_tools&#45;&gt;tool_client__delete_file -->
<g id="edge3" class="edge">
<title>test_tools&#45;&gt;tool_client__delete_file</title>
<path fill="none" stroke="#000000" d="M94.22,-100.74C100.07,-98.89 106.16,-97.2 112,-96 311.55,-54.89 368.54,-96.39 569,-60 572.84,-59.3 576.79,-58.46 580.73,-57.52"/>
<polygon fill="#000000" stroke="#000000" points="581.49,-60.94 590.3,-55.06 579.74,-54.16 581.49,-60.94"/>
</g>
<!-- tool_client__list_files -->
<g id="node6" class="node">
<title>tool_client__list_files</title>
<ellipse fill="#ffffff" fill-opacity="0.698039" stroke="black" cx="167" cy="-42" rx="42.65" ry="18"/>
<text xml:space="preserve" text-anchor="middle" x="167" y="-36.95" font-family="Times New Roman,serif" font-size="14.00" fill="#000000">list_files</text>
</g>
<!-- test_tools&#45;&gt;tool_client__list_files -->
<g id="edge1" class="edge">
<title>test_tools&#45;&gt;tool_client__list_files</title>
<path fill="none" stroke="#000000" d="M84.53,-97.98C99.44,-88.04 119.2,-74.87 135.64,-63.91"/>
<polygon fill="#000000" stroke="#000000" points="137.23,-67.05 143.61,-58.59 133.35,-61.23 137.23,-67.05"/>
</g>
<!-- tool_client__read_file -->
<g id="node9" class="node">
<title>tool_client__read_file</title>
<ellipse fill="#ffffff" fill-opacity="0.698039" stroke="black" cx="388" cy="-42" rx="43.67" ry="18"/>
<text xml:space="preserve" text-anchor="middle" x="388" y="-36.95" font-family="Times New Roman,serif" font-size="14.00" fill="#000000">read_file</text>
</g>
<!-- test_tools&#45;&gt;tool_client__read_file -->
<g id="edge5" class="edge">
<title>test_tools&#45;&gt;tool_client__read_file</title>
<path fill="none" stroke="#000000" d="M94.85,-100.96C100.52,-99.13 106.39,-97.39 112,-96 209.86,-71.68 238,-83.74 336,-60 338.79,-59.32 341.64,-58.57 344.5,-57.77"/>
<polygon fill="#000000" stroke="#000000" points="345.46,-61.14 354.04,-54.92 343.46,-54.43 345.46,-61.14"/>
</g>
<!-- tool_client__rename_file -->
<g id="node10" class="node">
<title>tool_client__rename_file</title>
<ellipse fill="#ffffff" fill-opacity="0.698039" stroke="black" cx="505" cy="-42" rx="55.45" ry="18"/>
<text xml:space="preserve" text-anchor="middle" x="505" y="-36.95" font-family="Times New Roman,serif" font-size="14.00" fill="#000000">rename_file</text>
</g>
<!-- test_tools&#45;&gt;tool_client__rename_file -->
<g id="edge2" class="edge">
<title>test_tools&#45;&gt;tool_client__rename_file</title>
<path fill="none" stroke="#000000" d="M94.52,-100.8C100.28,-98.97 106.27,-97.27 112,-96 255.6,-64.13 296.4,-86.96 441,-60 445.08,-59.24 449.29,-58.35 453.5,-57.4"/>
<polygon fill="#000000" stroke="#000000" points="454.21,-60.82 463.11,-55.08 452.57,-54.02 454.21,-60.82"/>
</g>
<!-- tool_client -->
<g id="node2" class="node">
<title>tool_client</title>
<ellipse fill="#ffffff" fill-opacity="0.698039" stroke="black" cx="505" cy="-190.5" rx="50.33" ry="18"/>
<text xml:space="preserve" text-anchor="middle" x="505" y="-185.45" font-family="Times New Roman,serif" font-size="14.00" fill="#000000">tool_client</text>
</g>
<!-- tool_client__main -->
<g id="node8" class="node">
<title>tool_client__main</title>
<ellipse fill="#ffffff" fill-opacity="0.698039" stroke="black" cx="505" cy="-114" rx="29.86" ry="18"/>
<text xml:space="preserve" text-anchor="middle" x="505" y="-108.95" font-family="Times New Roman,serif" font-size="14.00" fill="#000000">main</text>
</g>
<!-- tool_client&#45;&gt;tool_client__main -->
<g id="edge6" class="edge">
<title>tool_client&#45;&gt;tool_client__main</title>
<path fill="none" stroke="#000000" d="M505,-172.22C505,-163.82 505,-153.49 505,-143.93"/>
<polygon fill="#000000" stroke="#000000" points="508.5,-143.96 505,-133.96 501.5,-143.96 508.5,-143.96"/>
</g>
<!-- tool_client__call_llm_stream -->
<g id="node3" class="node">
<title>tool_client__call_llm_stream</title>
<ellipse fill="#ffffff" fill-opacity="0.698039" stroke="black" cx="875" cy="-42" rx="71.31" ry="18"/>
<text xml:space="preserve" text-anchor="middle" x="875" y="-36.95" font-family="Times New Roman,serif" font-size="14.00" fill="#000000">call_llm_stream</text>
</g>
<!-- tool_client__load_env -->
<g id="node7" class="node">
<title>tool_client__load_env</title>
<ellipse fill="#ffffff" fill-opacity="0.698039" stroke="black" cx="741" cy="-42" rx="44.7" ry="18"/>
<text xml:space="preserve" text-anchor="middle" x="741" y="-36.95" font-family="Times New Roman,serif" font-size="14.00" fill="#000000">load_env</text>
</g>
<!-- tool_client__main&#45;&gt;tool_client__call_llm_stream -->
<g id="edge13" class="edge">
<title>tool_client__main&#45;&gt;tool_client__call_llm_stream</title>
<path fill="none" stroke="#000000" d="M533.45,-108.08C585.47,-99.02 699.35,-78.9 795,-60 800.21,-58.97 805.61,-57.88 811.02,-56.77"/>
<polygon fill="#000000" stroke="#000000" points="811.55,-60.23 820.63,-54.77 810.13,-53.38 811.55,-60.23"/>
</g>
<!-- tool_client__main&#45;&gt;tool_client__create_file -->
<g id="edge11" class="edge">
<title>tool_client__main&#45;&gt;tool_client__create_file</title>
<path fill="none" stroke="#000000" d="M483.35,-101.35C479.31,-99.41 475.07,-97.54 471,-96 412.51,-73.9 395.23,-76.79 335,-60 331.92,-59.14 328.75,-58.25 325.56,-57.34"/>
<polygon fill="#000000" stroke="#000000" points="326.74,-54.03 316.16,-54.63 324.8,-60.76 326.74,-54.03"/>
</g>
<!-- tool_client__main&#45;&gt;tool_client__delete_file -->
<g id="edge9" class="edge">
<title>tool_client__main&#45;&gt;tool_client__delete_file</title>
<path fill="none" stroke="#000000" d="M526.14,-100.97C544.29,-90.64 570.82,-75.54 592.26,-63.34"/>
<polygon fill="#000000" stroke="#000000" points="593.73,-66.53 600.69,-58.54 590.27,-60.44 593.73,-66.53"/>
</g>
<!-- tool_client__main&#45;&gt;tool_client__list_files -->
<g id="edge7" class="edge">
<title>tool_client__main&#45;&gt;tool_client__list_files</title>
<path fill="none" stroke="#000000" d="M483.49,-100.95C479.43,-99.06 475.16,-97.3 471,-96 362.58,-62.16 328.55,-86.06 218,-60 215.22,-59.34 212.37,-58.6 209.52,-57.8"/>
<polygon fill="#000000" stroke="#000000" points="210.61,-54.48 200.02,-54.94 208.59,-61.18 210.61,-54.48"/>
</g>
<!-- tool_client__main&#45;&gt;tool_client__load_env -->
<g id="edge10" class="edge">
<title>tool_client__main&#45;&gt;tool_client__load_env</title>
<path fill="none" stroke="#000000" d="M531.58,-105.46C567.07,-95.33 631.88,-76.7 687,-60 689.9,-59.12 692.88,-58.21 695.89,-57.28"/>
<polygon fill="#000000" stroke="#000000" points="696.8,-60.66 705.31,-54.35 694.72,-53.98 696.8,-60.66"/>
</g>
<!-- tool_client__main&#45;&gt;tool_client__read_file -->
<g id="edge12" class="edge">
<title>tool_client__main&#45;&gt;tool_client__read_file</title>
<path fill="none" stroke="#000000" d="M484.35,-100.65C467.07,-90.3 442.06,-75.34 421.85,-63.25"/>
<polygon fill="#000000" stroke="#000000" points="423.75,-60.31 413.38,-58.18 420.16,-66.32 423.75,-60.31"/>
</g>
<!-- tool_client__main&#45;&gt;tool_client__rename_file -->
<g id="edge8" class="edge">
<title>tool_client__main&#45;&gt;tool_client__rename_file</title>
<path fill="none" stroke="#000000" d="M505,-95.7C505,-88.41 505,-79.73 505,-71.54"/>
<polygon fill="#000000" stroke="#000000" points="508.5,-71.62 505,-61.62 501.5,-71.62 508.5,-71.62"/>
</g>
</g>
</svg>
